<?xml version="1.0" encoding="UTF-8" standalone="no"?>
<svg
   width="30"
   height="5.8321877"
   viewBox="0 0 30 5.8321877"
   version="1.1"
   preserveAspectRatio="xMidYMid"
   id="svg13"
   sodipodi:docname="sample-logo.svg"
   xmlns:inkscape="http://www.inkscape.org/namespaces/inkscape"
   xmlns:sodipodi="http://sodipodi.sourceforge.net/DTD/sodipodi-0.dtd"
   xmlns="http://www.w3.org/2000/svg"
   xmlns:svg="http://www.w3.org/2000/svg">
  <sodipodi:namedview
     id="namedview9"
     pagecolor="#ffffff"
     bordercolor="#000000"
     borderopacity="0.25"
     inkscape:showpageshadow="2"
     inkscape:pageopacity="0.0"
     inkscape:pagecheckerboard="0"
     inkscape:deskcolor="#d1d1d1"
     showgrid="false" />
  <defs
     id="defs7" />
  <g
     id="g11"
     transform="matrix(0.05859375,0,0,0.05859375,0,-0.0271875)"
     style="fill:#78909c;fill-opacity:1">
    <path
       d="m 50.751,52.353 c 0,7.648 -2.274,14.09 -6.838,19.305 -4.763,5.464 -10.952,8.207 -18.528,8.207 -7.596,0 -13.765,-2.743 -18.528,-8.207 C 2.291,66.443 0,60.001 0,52.353 0,44.684 2.291,38.244 6.857,33.048 11.673,27.635 17.862,24.93 25.385,24.93 c 7.576,0 13.765,2.705 18.528,8.118 4.564,5.196 6.838,11.636 6.838,19.305 z m -15.084,0 c 0,-3.464 -0.829,-6.388 -2.489,-8.752 -1.857,-2.687 -4.456,-4.022 -7.793,-4.022 -3.338,0 -5.936,1.335 -7.795,4.022 -1.677,2.364 -2.507,5.288 -2.507,8.752 0,3.445 0.83,6.404 2.507,8.839 1.859,2.687 4.457,4.024 7.795,4.024 3.337,0 5.936,-1.337 7.793,-4.024 1.66,-2.435 2.489,-5.394 2.489,-8.839 z m 69.623,0 c 0,7.144 -2.057,13.386 -6.189,18.726 -4.42,5.845 -10.121,8.786 -17.049,8.786 -4.89,0 -9.038,-1.425 -12.43,-4.239 0,0.648 0.072,2.218 0.217,4.728 0.144,2.523 0.215,4.58 0.215,6.204 0,8.969 -2.67,13.442 -8.009,13.442 -2.184,0 -3.969,-0.776 -5.395,-2.31 -1.407,-1.55 -2.111,-3.412 -2.111,-5.61 V 33.752 c 0,-2.129 0.722,-3.97 2.165,-5.52 1.443,-1.534 3.23,-2.308 5.359,-2.308 3.21,0 5.556,1.602 7.036,4.798 3.157,-3.861 7.469,-5.792 12.935,-5.792 6.946,0 12.629,2.885 17.067,8.678 4.114,5.359 6.189,11.601 6.189,18.745 z m -15.084,0 c 0,-3.464 -0.846,-6.388 -2.506,-8.752 -1.86,-2.687 -4.457,-4.022 -7.795,-4.022 -3.337,0 -5.935,1.335 -7.794,4.022 -1.66,2.364 -2.489,5.288 -2.489,8.752 0,3.445 0.829,6.404 2.489,8.839 1.859,2.687 4.457,4.024 7.794,4.024 3.338,0 5.935,-1.337 7.795,-4.024 1.66,-2.435 2.506,-5.394 2.506,-8.839 z m 69.965,-1.622 c 0,2.523 -0.596,4.255 -1.787,5.231 -1.19,0.955 -3.048,1.442 -5.556,1.442 h -27.225 c 0,2.887 1.354,5.105 4.06,6.655 2.183,1.211 4.853,1.826 8.01,1.826 2.455,0 5.395,-0.815 8.841,-2.418 3.446,-1.625 5.664,-2.42 6.622,-2.42 1.749,0 3.228,0.632 4.455,1.931 1.208,1.282 1.823,2.833 1.823,4.62 0,4.129 -3.085,7.344 -9.257,9.652 -4.708,1.731 -9.489,2.615 -14.377,2.615 -7.866,0 -14.217,-2.615 -19.07,-7.828 -4.854,-5.215 -7.288,-11.764 -7.288,-19.684 0,-7.543 2.525,-13.983 7.576,-19.357 5.033,-5.379 11.295,-8.066 18.763,-8.066 6.946,0 12.755,2.544 17.411,7.631 4.653,5.089 6.999,11.15 6.999,18.17 z M 145.089,46.94 c -0.073,-2.31 -1.137,-4.402 -3.194,-6.298 -2.057,-1.893 -4.239,-2.83 -6.549,-2.83 -2.381,0 -4.601,0.937 -6.657,2.83 -2.056,1.896 -3.086,3.988 -3.086,6.298 z m 65.76,24.011 c 0,2.203 -0.704,4.06 -2.11,5.612 -1.426,1.535 -3.212,2.311 -5.395,2.311 -5.268,0 -7.903,-4.186 -7.903,-12.539 0,-1.606 0.109,-4.131 0.325,-7.613 0.235,-3.465 0.344,-6.008 0.344,-7.614 0,-8.86 -2.869,-13.296 -8.588,-13.296 -5.72,0 -8.57,4.436 -8.57,13.296 0,1.606 0.09,4.149 0.252,7.614 0.181,3.482 0.271,6.007 0.271,7.613 0,8.353 -2.598,12.539 -7.793,12.539 -2.184,0 -3.969,-0.776 -5.377,-2.311 -1.425,-1.552 -2.129,-3.409 -2.129,-5.612 V 33.736 c 0,-2.187 0.704,-4.042 2.129,-5.54 1.408,-1.516 3.212,-2.272 5.395,-2.272 3.608,0 6.115,1.602 7.522,4.798 2.436,-3.861 6.747,-5.792 12.918,-5.792 5.719,0 10.266,1.514 13.603,4.527 3.41,3.232 5.106,7.668 5.106,13.316 z m 47.32,-1.603 c 0,3.409 -2.214,6.114 -6.655,8.101 -3.535,1.604 -7.269,2.416 -11.203,2.416 -7.597,0 -13.766,-2.743 -18.529,-8.207 -4.564,-5.215 -6.855,-11.657 -6.855,-19.305 0,-7.669 2.327,-14.144 6.999,-19.449 4.673,-5.321 10.788,-7.974 18.385,-7.974 4.384,0 8.155,0.649 11.295,1.931 4.381,1.732 6.563,4.437 6.563,8.118 0,1.857 -0.574,3.499 -1.731,4.925 -1.153,1.407 -2.634,2.129 -4.437,2.129 -1.229,0 -2.996,-0.415 -5.305,-1.225 -2.308,-0.832 -4.147,-1.229 -5.5,-1.229 -3.591,0 -6.388,1.281 -8.39,3.842 -1.86,2.31 -2.797,5.269 -2.797,8.932 0,3.445 0.83,6.369 2.509,8.732 1.856,2.761 4.473,4.131 7.81,4.131 1.481,0 3.5,-0.433 6.079,-1.319 2.582,-0.863 4.441,-1.314 5.594,-1.314 1.68,0 3.12,0.72 4.349,2.128 1.209,1.425 1.819,2.957 1.819,4.637 z m 54.829,1.603 c 0,2.203 -0.702,4.06 -2.111,5.612 -1.424,1.535 -3.227,2.311 -5.414,2.311 -3.283,0 -5.626,-1.607 -7.034,-4.8 -3.156,3.862 -7.469,5.791 -12.935,5.791 -6.998,0 -12.736,-2.941 -17.177,-8.786 -4.041,-5.34 -6.076,-11.582 -6.076,-18.726 0,-7.144 2.035,-13.386 6.076,-18.745 4.513,-5.793 10.231,-8.678 17.177,-8.678 5.466,0 9.779,1.931 12.935,5.792 1.408,-3.196 3.751,-4.798 7.034,-4.798 2.131,0 3.918,0.774 5.363,2.308 1.44,1.55 2.162,3.373 2.162,5.504 z M 297.916,52.353 c 0,-3.464 -0.829,-6.388 -2.489,-8.752 -1.931,-2.687 -4.529,-4.022 -7.793,-4.022 -3.339,0 -5.936,1.335 -7.796,4.022 -1.675,2.364 -2.505,5.288 -2.505,8.752 0,3.445 0.809,6.404 2.414,8.839 1.915,2.687 4.548,4.024 7.887,4.024 3.336,0 5.933,-1.337 7.793,-4.024 1.66,-2.435 2.489,-5.394 2.489,-8.839 z m 53.565,-19.612 c 0,3.229 -1.569,5.448 -4.709,6.656 -2.904,0.976 -5.793,1.97 -8.677,2.995 -3.16,1.806 -4.729,5.161 -4.729,10.033 v 18.526 c 0,2.203 -0.722,4.06 -2.126,5.612 -1.428,1.535 -3.232,2.311 -5.414,2.311 -2.199,0 -4.006,-0.776 -5.411,-2.311 -1.428,-1.552 -2.13,-3.409 -2.13,-5.612 V 33.736 c 0,-2.187 0.702,-4.042 2.11,-5.54 1.425,-1.516 3.232,-2.272 5.415,-2.272 3.606,0 6.112,1.602 7.521,4.798 3.231,-3.861 6.695,-5.792 10.429,-5.792 2.127,0 3.95,0.774 5.466,2.308 1.496,1.552 2.255,3.392 2.255,5.503 z m 39.348,0.686 c 0,3.355 -1.317,5.466 -3.93,6.37 -1.285,0.45 -3.974,0.684 -8.068,0.684 v 30.47 c 0,2.203 -0.722,4.06 -2.126,5.612 -1.429,1.535 -3.232,2.311 -5.415,2.311 -2.126,0 -3.934,-0.776 -5.378,-2.311 -1.44,-1.552 -2.163,-3.409 -2.163,-5.612 v -30.47 c -3.104,0 -5.358,-0.397 -6.782,-1.171 -1.947,-1.083 -2.909,-3.05 -2.909,-5.883 0,-2.831 0.994,-4.762 2.996,-5.792 1.353,-0.758 3.591,-1.153 6.695,-1.153 v -6.459 c 0,-7.595 2.506,-11.383 7.541,-11.383 5.016,0 7.541,3.788 7.541,11.383 v 6.459 c 4.094,0 6.783,0.234 8.068,0.684 2.613,0.902 3.93,2.997 3.93,6.261 z M 512,24.265588 C 511.95886,19.634725 503.40196,17.533 481.251,17.533 c -51.976,0 -65.162,-2.22 -79.274,-17.069 5.936,8.916 9.184,25.639 64.121,24.807 57.318,-0.883 22.351,14.779 12.177,32.474 C 496.62175,41.369258 511.94489,30.575421 512,24.332939 Z M 438.963,71.819 c 0,4.331 -3.515,7.847 -7.848,7.847 -4.349,0 -7.865,-3.516 -7.865,-7.847 0,-4.349 3.516,-7.866 7.865,-7.866 4.333,0 7.848,3.517 7.848,7.866 z m 35.793,0 c 0,4.331 -3.515,7.847 -7.848,7.847 -4.345,0 -7.864,-3.516 -7.864,-7.847 0,-4.349 3.519,-7.866 7.864,-7.866 4.333,0 7.848,3.517 7.848,7.866 z"
       fill="url(#linearGradient-1)"
       id="path9"
       style="fill:#78909c;fill-opacity:1" />
  </g>
</svg>
